<svg width="1024" height="1024" viewBox="0 0 1024 1024" fill="none" xmlns="http://www.w3.org/2000/svg">
  <defs>
    <linearGradient id="bgBase" x1="910" y1="110" x2="350" y2="980" gradientUnits="userSpaceOnUse">
      <stop offset="0" stop-color="#41E39D"/>
      <stop offset="0.45" stop-color="#1BAA72"/>
      <stop offset="1" stop-color="#0A5C43"/>
    </linearGradient>

    <radialGradient id="shineRight" cx="0" cy="0" r="1" gradientUnits="userSpaceOnUse"
      gradientTransform="translate(840 230) rotate(140) scale(620 430)">
      <stop offset="0" stop-color="#C7FFE5" stop-opacity="0.70"/>
      <stop offset="0.55" stop-color="#9DFFD3" stop-opacity="0.28"/>
      <stop offset="1" stop-color="#9DFFD3" stop-opacity="0"/>
    </radialGradient>

    <linearGradient id="glassVeil" x1="140" y1="80" x2="710" y2="560" gradientUnits="userSpaceOnUse">
      <stop offset="0" stop-color="#FFFFFF" stop-opacity="0.34"/>
      <stop offset="0.55" stop-color="#FFFFFF" stop-opacity="0.10"/>
      <stop offset="1" stop-color="#FFFFFF" stop-opacity="0"/>
    </linearGradient>

    <linearGradient id="stylusFill" x1="250" y1="500" x2="800" y2="500" gradientUnits="userSpaceOnUse">
      <stop offset="0" stop-color="#F7FBFF"/>
      <stop offset="0.55" stop-color="#E6EEF6"/>
      <stop offset="1" stop-color="#D5E0EA"/>
    </linearGradient>

    <linearGradient id="tipFill" x1="800" y1="500" x2="875" y2="500" gradientUnits="userSpaceOnUse">
      <stop offset="0" stop-color="#B6C4CF"/>
      <stop offset="1" stop-color="#6F7C88"/>
    </linearGradient>

    <filter id="softShadow" x="100" y="160" width="824" height="710" filterUnits="userSpaceOnUse" color-interpolation-filters="sRGB">
      <feFlood flood-opacity="0" result="BackgroundImageFix"/>
      <feColorMatrix in="SourceAlpha" type="matrix" values="0 0 0 0 0 0 0 0 0 0 0 0 0 0 0 0 0 0 127 0" result="hardAlpha"/>
      <feOffset dy="16"/>
      <feGaussianBlur stdDeviation="16"/>
      <feComposite in2="hardAlpha" operator="out"/>
      <feColorMatrix type="matrix" values="0 0 0 0 0.03 0 0 0 0 0.10 0 0 0 0 0.08 0 0 0 0.28 0"/>
      <feBlend mode="normal" in2="BackgroundImageFix" result="effect1_dropShadow"/>
      <feBlend mode="normal" in="SourceGraphic" in2="effect1_dropShadow" result="shape"/>
    </filter>

    <clipPath id="clipCard">
      <rect x="48" y="48" width="928" height="928" rx="224"/>
    </clipPath>
  </defs>

  <rect x="48" y="48" width="928" height="928" rx="224" fill="url(#bgBase)"/>

  <g clip-path="url(#clipCard)">
    <rect x="48" y="48" width="928" height="928" fill="url(#shineRight)"/>

    <path d="M94 128C166 96 330 80 520 102C716 124 850 186 930 276V48H48V284C56 218 64 158 94 128Z"
      fill="url(#glassVeil)"/>

    <ellipse cx="760" cy="224" rx="212" ry="128" fill="#DBFFE9" opacity="0.20"/>
  </g>

  <rect x="49.5" y="49.5" width="925" height="925" rx="222.5" stroke="white" stroke-opacity="0.22" stroke-width="3"/>
  <rect x="72" y="72" width="880" height="880" rx="199" stroke="white" stroke-opacity="0.10" stroke-width="2"/>

  <!-- Thin seamless stylus, tilted opposite direction -->
  <g filter="url(#softShadow)" transform="translate(512 512) rotate(24) translate(-512 -512)">
    <path d="M246 467C224 467 206 485 206 507V521C206 543 224 561 246 561H770C788 561 803 554 816 541L864 494L816 447C803 434 788 427 770 427H246Z"
      fill="url(#stylusFill)"/>
    <path d="M770 427C788 427 803 434 816 447L864 494L816 541C803 554 788 561 770 561"
      fill="url(#tipFill)"/>

    <path d="M254 450C300 438 698 438 780 452" stroke="#FFFFFF" stroke-opacity="0.78" stroke-width="7" stroke-linecap="round"/>
    <path d="M252 548C330 560 680 560 770 550" stroke="#C8D5E0" stroke-opacity="0.45" stroke-width="4" stroke-linecap="round"/>

    <circle cx="868" cy="494" r="5.5" fill="#5F6D79"/>
  </g>
</svg>
